<svg preserveAspectRatio="none" viewBox="0 0 52 53" fill="currentColor" xmlns="http://www.w3.org/2000/svg"><path d="M50.375 36H1.625C1.15104 36 0.761719 36.1523 0.457031 36.457C0.152344 36.7617 0 37.151 0 37.625V39.25C0 39.724 0.152344 40.1133 0.457031 40.418C0.761719 40.7227 1.15104 40.875 1.625 40.875H17.5703L10.0547 49.5078C9.75 49.8125 9.61458 50.2018 9.64844 50.6758C9.71615 51.1497 9.91927 51.5052 10.2578 51.7422C10.3932 51.9115 10.5625 52.0299 10.7656 52.0977C11.0026 52.1992 11.2057 52.25 11.375 52.25C11.612 52.25 11.849 52.1992 12.0859 52.0977C12.3229 52.0299 12.526 51.9115 12.6953 51.7422L21.9375 40.875H24.375V49C24.375 49.474 24.5273 49.8633 24.832 50.168C25.1367 50.4727 25.526 50.625 26 50.625C26.474 50.625 26.8633 50.4727 27.168 50.168C27.4727 49.8633 27.625 49.474 27.625 49V40.875H30.0625L39.3047 51.7422C39.474 51.9115 39.6771 52.0299 39.9141 52.0977C40.151 52.1992 40.388 52.25 40.625 52.25C40.7943 52.25 40.9805 52.2161 41.1836 52.1484C41.4206 52.0807 41.6068 52.013 41.7422 51.9453C42.0807 51.6068 42.2669 51.2174 42.3008 50.7773C42.3685 50.3372 42.25 49.9648 41.9453 49.6602L34.4297 40.875H50.375C50.849 40.875 51.2383 40.7227 51.543 40.418C51.8477 40.1133 52 39.724 52 39.25V37.625C52 37.151 51.8477 36.7617 51.543 36.457C51.2383 36.1523 50.849 36 50.375 36ZM29.25 0.25H22.75C22.276 0.25 21.8867 0.402344 21.582 0.707031C21.2773 1.01172 21.125 1.40104 21.125 1.875V3.5H6.5C6.02604 3.5 5.63672 3.65234 5.33203 3.95703C5.02734 4.26172 4.875 4.65104 4.875 5.125V31.125C4.875 31.599 5.02734 31.9883 5.33203 32.293C5.63672 32.5977 6.02604 32.75 6.5 32.75H45.5C45.974 32.75 46.3633 32.5977 46.668 32.293C46.9727 31.9883 47.125 31.599 47.125 31.125V5.125C47.125 4.65104 46.9727 4.26172 46.668 3.95703C46.3633 3.65234 45.974 3.5 45.5 3.5H30.875V1.875C30.875 1.40104 30.7227 1.01172 30.418 0.707031C30.1133 0.402344 29.724 0.25 29.25 0.25ZM35.75 11.625C35.8177 11.625 35.9193 11.6419 36.0547 11.6758C36.1901 11.6758 36.3086 11.7096 36.4102 11.7773C36.5794 11.8789 36.7318 11.9974 36.8672 12.1328C37.0026 12.2682 37.1211 12.4206 37.2227 12.5898C37.2904 12.6914 37.3242 12.8099 37.3242 12.9453C37.3581 13.0807 37.375 13.1823 37.375 13.25V19.75C37.375 20.224 37.2227 20.6133 36.918 20.918C36.6133 21.2227 36.224 21.375 35.75 21.375C35.276 21.375 34.8867 21.2227 34.582 20.918C34.2773 20.6133 34.125 20.224 34.125 19.75V17.1602L27.1172 24.1172C26.9818 24.2865 26.8125 24.4219 26.6094 24.5234C26.4401 24.5911 26.237 24.625 26 24.625C25.763 24.625 25.543 24.5911 25.3398 24.5234C25.1706 24.4219 25.0182 24.2865 24.8828 24.1172L19.5 18.7852L15.7422 22.4922C15.4375 22.8307 15.0651 23 14.625 23C14.1849 23 13.8125 22.8307 13.5078 22.4922C13.1693 22.1875 13 21.8151 13 21.375C13 20.9349 13.1693 20.5625 13.5078 20.2578L18.3828 15.3828C18.6875 15.0443 19.0599 14.875 19.5 14.875C19.9401 14.875 20.3125 15.0443 20.6172 15.3828L26 20.7148L31.8398 14.875H29.25C28.776 14.875 28.3867 14.7227 28.082 14.418C27.7773 14.1133 27.625 13.724 27.625 13.25C27.625 12.776 27.7773 12.3867 28.082 12.082C28.3867 11.7773 28.776 11.625 29.25 11.625H35.75Z" fill="currentColor"/></svg>