<svg preserveAspectRatio="none" viewBox="0 0 52 50" fill="currentColor" xmlns="http://www.w3.org/2000/svg"><path d="M4.875 38.25C4.40104 38.25 4.01172 38.4023 3.70703 38.707C3.40234 39.0117 3.25 39.401 3.25 39.875V48C3.25 48.474 3.40234 48.8633 3.70703 49.168C4.01172 49.4727 4.40104 49.625 4.875 49.625H47.125C47.599 49.625 47.9883 49.4727 48.293 49.168C48.5977 48.8633 48.75 48.474 48.75 48V39.875C48.75 39.401 48.5977 39.0117 48.293 38.707C47.9883 38.4023 47.599 38.25 47.125 38.25H30.875V39.875C30.875 40.349 30.7227 40.7383 30.418 41.043C30.1133 41.3477 29.724 41.5 29.25 41.5H22.75C22.276 41.5 21.8867 41.3477 21.582 41.043C21.2773 40.7383 21.125 40.349 21.125 39.875V38.25H4.875ZM50.375 7.375H35.75V2.5C35.75 2.02604 35.5977 1.63672 35.293 1.33203C34.9883 1.02734 34.599 0.875 34.125 0.875H17.875C17.401 0.875 17.0117 1.02734 16.707 1.33203C16.4023 1.63672 16.25 2.02604 16.25 2.5V7.375H1.625C1.15104 7.375 0.761719 7.52734 0.457031 7.83203C0.152344 8.13672 0 8.52604 0 9V33.375C0 33.849 0.152344 34.2383 0.457031 34.543C0.761719 34.8477 1.15104 35 1.625 35H21.125V31.75C21.125 31.276 21.2773 30.8867 21.582 30.582C21.8867 30.2773 22.276 30.125 22.75 30.125H29.25C29.724 30.125 30.1133 30.2773 30.418 30.582C30.7227 30.8867 30.875 31.276 30.875 31.75V35H50.375C50.849 35 51.2383 34.8477 51.543 34.543C51.8477 34.2383 52 33.849 52 33.375V9C52 8.52604 51.8477 8.13672 51.543 7.83203C51.2383 7.52734 50.849 7.375 50.375 7.375ZM32.5 7.375H19.5V4.125H32.5V7.375Z" fill="currentColor"/></svg>