<svg preserveAspectRatio="none" viewBox="0 0 52 37" fill="currentColor" xmlns="http://www.w3.org/2000/svg"><path d="M50.375 29.625H1.625C1.15104 29.625 0.761719 29.7773 0.457031 30.082C0.152344 30.3867 0 30.776 0 31.25C0 32.638 0.457031 33.806 1.37109 34.7539C2.31901 35.668 3.48698 36.125 4.875 36.125H47.125C48.513 36.125 49.6641 35.668 50.5781 34.7539C51.526 33.806 52 32.638 52 31.25C52 30.776 51.8477 30.3867 51.543 30.082C51.2383 29.7773 50.849 29.625 50.375 29.625ZM4.875 5.25V24.75C4.875 25.224 5.02734 25.6133 5.33203 25.918C5.63672 26.2227 6.02604 26.375 6.5 26.375C6.97396 26.375 7.36328 26.2227 7.66797 25.918C7.97266 25.6133 8.125 25.224 8.125 24.75V5.25C8.125 4.77604 8.27734 4.38672 8.58203 4.08203C8.88672 3.77734 9.27604 3.625 9.75 3.625H42.25C42.724 3.625 43.1133 3.77734 43.418 4.08203C43.7227 4.38672 43.875 4.77604 43.875 5.25V24.75C43.875 25.224 44.0273 25.6133 44.332 25.918C44.6367 26.2227 45.026 26.375 45.5 26.375C45.974 26.375 46.3633 26.2227 46.668 25.918C46.9727 25.6133 47.125 25.224 47.125 24.75V5.25C47.125 3.86198 46.651 2.71094 45.7031 1.79688C44.7891 0.848958 43.638 0.375 42.25 0.375H9.75C8.36198 0.375 7.19401 0.848958 6.24609 1.79688C5.33203 2.71094 4.875 3.86198 4.875 5.25ZM24.375 6.875C23.901 6.875 23.5117 7.02734 23.207 7.33203C22.9023 7.63672 22.75 8.02604 22.75 8.5V24.75C22.75 25.224 22.9023 25.6133 23.207 25.918C23.5117 26.2227 23.901 26.375 24.375 26.375H27.625C28.099 26.375 28.4883 26.2227 28.793 25.918C29.0977 25.6133 29.25 25.224 29.25 24.75V8.5C29.25 8.02604 29.0977 7.63672 28.793 7.33203C28.4883 7.02734 28.099 6.875 27.625 6.875H24.375ZM14.625 16.625C14.151 16.625 13.7617 16.7773 13.457 17.082C13.1523 17.3867 13 17.776 13 18.25V24.75C13 25.224 13.1523 25.6133 13.457 25.918C13.7617 26.2227 14.151 26.375 14.625 26.375H17.875C18.349 26.375 18.7383 26.2227 19.043 25.918C19.3477 25.6133 19.5 25.224 19.5 24.75V18.25C19.5 17.776 19.3477 17.3867 19.043 17.082C18.7383 16.7773 18.349 16.625 17.875 16.625H14.625ZM34.125 13.375C33.651 13.375 33.2617 13.5273 32.957 13.832C32.6523 14.1367 32.5 14.526 32.5 15V24.75C32.5 25.224 32.6523 25.6133 32.957 25.918C33.2617 26.2227 33.651 26.375 34.125 26.375H37.375C37.849 26.375 38.2383 26.2227 38.543 25.918C38.8477 25.6133 39 25.224 39 24.75V15C39 14.526 38.8477 14.1367 38.543 13.832C38.2383 13.5273 37.849 13.375 37.375 13.375H34.125Z" fill="currentColor"/></svg>