<svg preserveAspectRatio="none" viewBox="0 0 50 37" fill="none" xmlns="http://www.w3.org/2000/svg"><path d="M29.875 31.25C29.875 32.6042 29.401 33.7552 28.4531 34.7031C27.5052 35.651 26.3542 36.125 25 36.125C23.6458 36.125 22.4948 35.651 21.5469 34.7031C20.599 33.7552 20.125 32.6042 20.125 31.25C20.125 29.8958 20.599 28.7448 21.5469 27.7969C22.4948 26.849 23.6458 26.375 25 26.375C26.3542 26.375 27.5052 26.849 28.4531 27.7969C29.401 28.7448 29.875 29.8958 29.875 31.25ZM39.9297 19.5703C38.9479 18.5547 37.8815 17.6745 36.7305 16.9297C35.5794 16.151 34.3607 15.5078 33.0742 15C31.8216 14.4583 30.5182 14.0521 29.1641 13.7812C27.8099 13.5104 26.4219 13.375 25 13.375C23.5781 13.375 22.1901 13.5104 20.8359 13.7812C19.4818 14.0521 18.1615 14.4583 16.875 15C15.6224 15.5078 14.4206 16.151 13.2695 16.9297C12.1185 17.6745 11.0521 18.5547 10.0703 19.5703L14.6406 24.1406C16.0286 22.7865 17.6029 21.737 19.3633 20.9922C21.1576 20.2474 23.0365 19.875 25 19.875C26.9635 19.875 28.8255 20.2474 30.5859 20.9922C32.3802 21.737 33.9714 22.7865 35.3594 24.1406L39.9297 19.5703ZM25 0.375C22.6979 0.375 20.4297 0.595052 18.1953 1.03516C15.9948 1.47526 13.862 2.13542 11.7969 3.01562C9.73177 3.86198 7.7513 4.91146 5.85547 6.16406C3.95964 7.41667 2.19922 8.85547 0.574219 10.4805L5.19531 15.1016C6.51562 13.7812 7.9375 12.6133 9.46094 11.5977C10.9844 10.5482 12.5755 9.6849 14.2344 9.00781C15.9271 8.29688 17.6706 7.77214 19.4648 7.43359C21.293 7.0612 23.138 6.875 25 6.875C26.862 6.875 28.6901 7.0612 30.4844 7.43359C32.3125 7.77214 34.056 8.29688 35.7148 9.00781C37.4076 9.6849 39.0156 10.5482 40.5391 11.5977C42.0625 12.6133 43.4844 13.7812 44.8047 15.1016L49.4258 10.4805C47.8008 8.85547 46.0404 7.41667 44.1445 6.16406C42.2487 4.91146 40.2682 3.86198 38.2031 3.01562C36.138 2.13542 33.9883 1.47526 31.7539 1.03516C29.5534 0.595052 27.3021 0.375 25 0.375Z" fill="currentColor"/></svg>