<svg preserveAspectRatio="none" viewBox="0 0 52 50" fill="none" xmlns="http://www.w3.org/2000/svg"><path d="M47.125 0.875H4.875C3.52083 0.875 2.36979 1.34896 1.42188 2.29688C0.473958 3.24479 0 4.39583 0 5.75V36.625C0 37.9792 0.473958 39.1302 1.42188 40.0781C2.36979 41.026 3.52083 41.5 4.875 41.5H19.5V46.375H14.625C14.1849 46.375 13.7956 46.5443 13.457 46.8828C13.1523 47.1875 13 47.5599 13 48C13 48.4401 13.1523 48.8125 13.457 49.1172C13.7956 49.4557 14.1849 49.625 14.625 49.625H37.375C37.8151 49.625 38.1875 49.4557 38.4922 49.1172C38.8307 48.8125 39 48.4401 39 48C39 47.5599 38.8307 47.1875 38.4922 46.8828C38.1875 46.5443 37.8151 46.375 37.375 46.375H32.5V41.5H47.125C48.4792 41.5 49.6302 41.026 50.5781 40.0781C51.526 39.1302 52 37.9792 52 36.625V5.75C52 4.39583 51.526 3.24479 50.5781 2.29688C49.6302 1.34896 48.4792 0.875 47.125 0.875ZM48.75 31.75H3.25V5.75C3.25 5.3099 3.40234 4.9375 3.70703 4.63281C4.04557 4.29427 4.4349 4.125 4.875 4.125H47.125C47.5651 4.125 47.9375 4.29427 48.2422 4.63281C48.5807 4.9375 48.75 5.3099 48.75 5.75V31.75ZM27.625 9C27.625 9.4401 27.4557 9.82943 27.1172 10.168C26.8125 10.4727 26.4401 10.625 26 10.625C25.5599 10.625 25.1706 10.4727 24.832 10.168C24.5273 9.82943 24.375 9.4401 24.375 9C24.375 8.5599 24.5273 8.1875 24.832 7.88281C25.1706 7.54427 25.5599 7.375 26 7.375C26.4401 7.375 26.8125 7.54427 27.1172 7.88281C27.4557 8.1875 27.625 8.5599 27.625 9Z" fill="currentColor"/></svg>