<svg preserveAspectRatio="none" viewBox="0 0 49 51" fill="none" xmlns="http://www.w3.org/2000/svg"><path d="M4.875 50.625H40.625C42.013 50.625 43.1641 50.151 44.0781 49.2031C45.026 48.2891 45.5 47.138 45.5 45.75V44.125H30.5703C32.1953 43.4479 33.6849 42.5677 35.0391 41.4844C36.3932 40.3672 37.5781 39.1146 38.5938 37.7266C39.6094 36.3047 40.4219 34.7643 41.0312 33.1055C41.6745 31.4466 42.0807 29.7031 42.25 27.875H43.875C45.263 27.875 46.4141 27.418 47.3281 26.5039C48.276 25.556 48.75 24.388 48.75 23V16.5C48.75 16.026 48.5977 15.6367 48.293 15.332C47.9883 15.0273 47.599 14.875 47.125 14.875H4.875C4.40104 14.875 4.01172 15.0273 3.70703 15.332C3.40234 15.6367 3.25 16.026 3.25 16.5V26.25C3.25 28.2474 3.53776 30.1602 4.11328 31.9883C4.6888 33.7826 5.48438 35.4583 6.5 37.0156C7.54948 38.5729 8.78516 39.9609 10.207 41.1797C11.6628 42.3646 13.237 43.3464 14.9297 44.125H0V45.75C0 47.138 0.457031 48.2891 1.37109 49.2031C2.31901 50.151 3.48698 50.625 4.875 50.625ZM42.25 18.125H45.5V23C45.5 23.474 45.3477 23.8633 45.043 24.168C44.7383 24.4727 44.349 24.625 43.875 24.625H42.25V18.125ZM21.125 1.875V6.75C21.125 7.22396 21.2773 7.61328 21.582 7.91797C21.8867 8.22266 22.276 8.375 22.75 8.375C23.224 8.375 23.6133 8.22266 23.918 7.91797C24.2227 7.61328 24.375 7.22396 24.375 6.75V1.875C24.375 1.40104 24.2227 1.01172 23.918 0.707031C23.6133 0.402344 23.224 0.25 22.75 0.25C22.276 0.25 21.8867 0.402344 21.582 0.707031C21.2773 1.01172 21.125 1.40104 21.125 1.875ZM13 5.125V10C13 10.474 13.1523 10.8633 13.457 11.168C13.7617 11.4727 14.151 11.625 14.625 11.625C15.099 11.625 15.4883 11.4727 15.793 11.168C16.0977 10.8633 16.25 10.474 16.25 10V5.125C16.25 4.65104 16.0977 4.26172 15.793 3.95703C15.4883 3.65234 15.099 3.5 14.625 3.5C14.151 3.5 13.7617 3.65234 13.457 3.95703C13.1523 4.26172 13 4.65104 13 5.125ZM29.25 5.125V10C29.25 10.474 29.4023 10.8633 29.707 11.168C30.0117 11.4727 30.401 11.625 30.875 11.625C31.349 11.625 31.7383 11.4727 32.043 11.168C32.3477 10.8633 32.5 10.474 32.5 10V5.125C32.5 4.65104 32.3477 4.26172 32.043 3.95703C31.7383 3.65234 31.349 3.5 30.875 3.5C30.401 3.5 30.0117 3.65234 29.707 3.95703C29.4023 4.26172 29.25 4.65104 29.25 5.125Z" fill="currentColor"/></svg>