<svg preserveAspectRatio="none" viewBox="0 0 52 40" fill="none" xmlns="http://www.w3.org/2000/svg"><path d="M50.375 0.75H1.625C1.1849 0.75 0.795573 0.919271 0.457031 1.25781C0.152344 1.5625 0 1.9349 0 2.375V38.125C0 38.5651 0.152344 38.9544 0.457031 39.293C0.795573 39.5977 1.1849 39.75 1.625 39.75H50.375C50.8151 39.75 51.1875 39.5977 51.4922 39.293C51.8307 38.9544 52 38.5651 52 38.125V2.375C52 1.9349 51.8307 1.5625 51.4922 1.25781C51.1875 0.919271 50.8151 0.75 50.375 0.75ZM46.4141 8.62109L26.9141 21.6211C26.7786 21.6888 26.6263 21.7565 26.457 21.8242C26.3216 21.8581 26.1693 21.875 26 21.875C25.8307 21.875 25.6615 21.8581 25.4922 21.8242C25.3568 21.7565 25.2214 21.6888 25.0859 21.6211L5.58594 8.62109C5.21354 8.35026 4.97656 7.99479 4.875 7.55469C4.80729 7.11458 4.89193 6.70833 5.12891 6.33594C5.39974 5.96354 5.75521 5.74349 6.19531 5.67578C6.63542 5.57422 7.04167 5.64193 7.41406 5.87891L26 18.3203L44.5859 5.87891C44.9583 5.64193 45.3646 5.57422 45.8047 5.67578C46.2448 5.74349 46.6003 5.96354 46.8711 6.33594C47.1081 6.70833 47.1758 7.11458 47.0742 7.55469C47.0065 7.99479 46.7865 8.35026 46.4141 8.62109Z" fill="currentColor"/></svg>