<svg preserveAspectRatio="none" viewBox="0 0 50 48" fill="none" xmlns="http://www.w3.org/2000/svg"><path d="M37.0352 18.375L39.625 15.7852L40.1328 16.2422C40.2682 16.4115 40.4375 16.5469 40.6406 16.6484C40.8776 16.7161 41.0807 16.75 41.25 16.75C41.4193 16.75 41.6055 16.7161 41.8086 16.6484C42.0456 16.5469 42.2318 16.4115 42.3672 16.2422L43.9922 14.6172C44.3307 14.3125 44.5 13.9401 44.5 13.5C44.5 13.0599 44.3307 12.6875 43.9922 12.3828L32.6172 1.00781C32.3125 0.669271 31.9401 0.5 31.5 0.5C31.0599 0.5 30.6875 0.669271 30.3828 1.00781L28.7578 2.63281C28.4193 2.9375 28.25 3.3099 28.25 3.75C28.25 4.1901 28.4193 4.5625 28.7578 4.86719L29.2148 5.375L18.5 16.0898L17.9922 15.6328C17.6875 15.2943 17.3151 15.125 16.875 15.125C16.4349 15.125 16.0625 15.2943 15.7578 15.6328L14.1328 17.2578C13.7943 17.5625 13.625 17.9349 13.625 18.375C13.625 18.8151 13.7943 19.1875 14.1328 19.4922L25.5078 30.8672C25.6432 31.0365 25.8125 31.1719 26.0156 31.2734C26.2526 31.3411 26.4557 31.375 26.625 31.375C26.7943 31.375 26.9805 31.3411 27.1836 31.2734C27.4206 31.1719 27.6068 31.0365 27.7422 30.8672L29.3672 29.2422C29.7057 28.9375 29.875 28.5651 29.875 28.125C29.875 27.6849 29.7057 27.3125 29.3672 27.0078L28.9102 26.5L31.5 23.9102L43.3828 35.7422C43.5182 35.9115 43.6875 36.0469 43.8906 36.1484C44.1276 36.2161 44.3307 36.25 44.5 36.25C44.6693 36.25 44.8555 36.2161 45.0586 36.1484C45.2956 36.0469 45.4818 35.9115 45.6172 35.7422L48.8672 32.4922C49.2057 32.1875 49.375 31.8151 49.375 31.375C49.375 30.9349 49.2057 30.5625 48.8672 30.2578L37.0352 18.375ZM31.5 42.75H29.875V39.5C29.875 39.026 29.7227 38.6367 29.418 38.332C29.1133 38.0273 28.724 37.875 28.25 37.875H5.5C5.02604 37.875 4.63672 38.0273 4.33203 38.332C4.02734 38.6367 3.875 39.026 3.875 39.5V42.75H2.25C1.77604 42.75 1.38672 42.9023 1.08203 43.207C0.777344 43.5117 0.625 43.901 0.625 44.375V46C0.625 46.474 0.777344 46.8633 1.08203 47.168C1.38672 47.4727 1.77604 47.625 2.25 47.625H31.5C31.974 47.625 32.3633 47.4727 32.668 47.168C32.9727 46.8633 33.125 46.474 33.125 46V44.375C33.125 43.901 32.9727 43.5117 32.668 43.207C32.3633 42.9023 31.974 42.75 31.5 42.75ZM3.875 29.75C3.40104 29.75 3.01172 29.9023 2.70703 30.207C2.40234 30.5117 2.25 30.901 2.25 31.375C2.25 31.849 2.40234 32.2383 2.70703 32.543C3.01172 32.8477 3.40104 33 3.875 33H8.75C9.22396 33 9.61328 32.8477 9.91797 32.543C10.2227 32.2383 10.375 31.849 10.375 31.375C10.375 30.901 10.2227 30.5117 9.91797 30.207C9.61328 29.9023 9.22396 29.75 8.75 29.75H3.875ZM11.8477 27.9727C12.1523 27.6341 12.3047 27.2617 12.3047 26.8555C12.3047 26.4154 12.1523 26.026 11.8477 25.6875L8.44531 22.2852C8.10677 21.9466 7.71745 21.7773 7.27734 21.7773C6.83724 21.7773 6.46484 21.9466 6.16016 22.2852C5.82161 22.5898 5.65234 22.9622 5.65234 23.4023C5.65234 23.8424 5.82161 24.2318 6.16016 24.5703L9.5625 27.9727C9.73177 28.1419 9.91797 28.2604 10.1211 28.3281C10.3581 28.3958 10.5443 28.4297 10.6797 28.4297C10.849 28.4297 11.0352 28.3958 11.2383 28.3281C11.4753 28.2604 11.6784 28.1419 11.8477 27.9727Z" fill="currentColor"/></svg>