<svg preserveAspectRatio="none" viewBox="0 0 46 51" fill="none" xmlns="http://www.w3.org/2000/svg"><path d="M18.125 27.875C17.651 27.875 17.2617 28.0273 16.957 28.332C16.6523 28.6367 16.5 29.026 16.5 29.5V49C16.5 49.474 16.6523 49.8633 16.957 50.168C17.2617 50.4727 17.651 50.625 18.125 50.625H27.875C28.349 50.625 28.7383 50.4727 29.043 50.168C29.3477 49.8633 29.5 49.474 29.5 49V29.5C29.5 29.026 29.3477 28.6367 29.043 28.332C28.7383 28.0273 28.349 27.875 27.875 27.875H18.125ZM0.25 39.25V49C0.25 49.474 0.402344 49.8633 0.707031 50.168C1.01172 50.4727 1.40104 50.625 1.875 50.625H11.625C12.099 50.625 12.4883 50.4727 12.793 50.168C13.0977 49.8633 13.25 49.474 13.25 49V39.25C13.25 38.776 13.0977 38.3867 12.793 38.082C12.4883 37.7773 12.099 37.625 11.625 37.625H1.875C1.40104 37.625 1.01172 37.7773 0.707031 38.082C0.402344 38.3867 0.25 38.776 0.25 39.25ZM32.75 19.75V49C32.75 49.474 32.9023 49.8633 33.207 50.168C33.5117 50.4727 33.901 50.625 34.375 50.625H44.125C44.599 50.625 44.9883 50.4727 45.293 50.168C45.5977 49.8633 45.75 49.474 45.75 49V19.75C45.75 19.276 45.5977 18.8867 45.293 18.582C44.9883 18.2773 44.599 18.125 44.125 18.125H34.375C33.901 18.125 33.5117 18.2773 33.207 18.582C32.9023 18.8867 32.75 19.276 32.75 19.75ZM5.63281 19.2422C5.9375 19.5807 6.3099 19.75 6.75 19.75C7.1901 19.75 7.5625 19.5807 7.86719 19.2422L14.875 12.2852L21.8828 19.2422C22.0182 19.4115 22.1875 19.5469 22.3906 19.6484C22.6276 19.7161 22.8307 19.75 23 19.75C23.1693 19.75 23.3555 19.7161 23.5586 19.6484C23.7956 19.5469 23.9818 19.4115 24.1172 19.2422L37.625 5.78516V11.625C37.625 12.099 37.7773 12.4883 38.082 12.793C38.3867 13.0977 38.776 13.25 39.25 13.25C39.724 13.25 40.1133 13.0977 40.418 12.793C40.7227 12.4883 40.875 12.099 40.875 11.625V1.875C40.875 1.80729 40.8581 1.70573 40.8242 1.57031C40.8242 1.4349 40.7904 1.31641 40.7227 1.21484C40.6211 1.04557 40.5026 0.893229 40.3672 0.757812C40.2318 0.622396 40.0794 0.503906 39.9102 0.402344C39.8086 0.334635 39.6901 0.300781 39.5547 0.300781C39.4193 0.266927 39.3177 0.25 39.25 0.25H29.5C29.026 0.25 28.6367 0.402344 28.332 0.707031C28.0273 1.01172 27.875 1.40104 27.875 1.875C27.875 2.34896 28.0273 2.73828 28.332 3.04297C28.6367 3.34766 29.026 3.5 29.5 3.5H35.3398L23 15.8398L15.9922 8.88281C15.6875 8.54427 15.3151 8.375 14.875 8.375C14.4349 8.375 14.0625 8.54427 13.7578 8.88281L5.63281 17.0078C5.29427 17.3125 5.125 17.6849 5.125 18.125C5.125 18.5651 5.29427 18.9375 5.63281 19.2422Z" fill="currentColor"/></svg>