<svg preserveAspectRatio="none" viewBox="0 0 48 48" fill="currentColor" xmlns="http://www.w3.org/2000/svg"><path d="M42 18H31.5V12C31.5 10.8438 31.3281 9.67188 30.9844 8.48438C30.6406 7.26562 30.125 6.125 29.4375 5.0625C28.75 3.96875 27.8906 3.01563 26.8594 2.20312C25.8594 1.35938 24.7031 0.75 23.3906 0.375C22.9219 0.25 22.4531 0.234375 21.9844 0.328125C21.5156 0.390625 21.0781 0.578125 20.6719 0.890625C20.2969 1.17188 20 1.51563 19.7812 1.92188C19.5938 2.32812 19.5 2.78125 19.5 3.28125V11.4844L12 21.1406V44.3906L14.8594 45.8438C16.2656 46.5625 17.75 47.0938 19.3125 47.4375C20.875 47.8125 22.4375 48 24 48H39C40.6562 48 42.1094 47.4531 43.3594 46.3594C44.6406 45.2656 45.4375 43.875 45.75 42.1875L48 24.1875C48 24.1562 48 24.125 48 24.0938C48 24.0625 48 24.0312 48 24C48 22.3438 47.4062 20.9375 46.2188 19.7812C45.0625 18.5938 43.6562 18 42 18ZM1.5 48H7.5C7.90625 48 8.25 47.8438 8.53125 47.5312C8.84375 47.25 9 46.9062 9 46.5V21C9 20.5938 8.84375 20.25 8.53125 19.9688C8.25 19.6562 7.90625 19.5 7.5 19.5H1.5C1.09375 19.5 0.734375 19.6562 0.421875 19.9688C0.140625 20.25 0 20.5938 0 21V46.5C0 46.9062 0.140625 47.25 0.421875 47.5312C0.734375 47.8438 1.09375 48 1.5 48Z" fill="currentColor"/></svg>