<svg preserveAspectRatio="none" viewBox="0 0 48 48" fill="currentColor" xmlns="http://www.w3.org/2000/svg"><path d="M24 0C20.6875 0 17.5781 0.640625 14.6719 1.92188C11.7656 3.17187 9.21875 4.89063 7.03125 7.07812C4.875 9.23438 3.15625 11.7656 1.875 14.6719C0.625 17.5781 0 20.6875 0 24C0 27.3125 0.625 30.4219 1.875 33.3281C3.15625 36.2344 4.875 38.7812 7.03125 40.9688C9.21875 43.125 11.7656 44.8281 14.6719 46.0781C17.5781 47.3594 20.6875 48 24 48C27.3125 48 30.4219 47.3594 33.3281 46.0781C36.2344 44.8281 38.7656 43.125 40.9219 40.9688C43.1094 38.7812 44.8281 36.2344 46.0781 33.3281C47.3594 30.4219 48 27.3125 48 24C48 20.6875 47.3594 17.5781 46.0781 14.6719C44.8281 11.7656 43.1094 9.23438 40.9219 7.07812C38.7656 4.89063 36.2344 3.17187 33.3281 1.92188C30.4219 0.640625 27.3125 0 24 0ZM22.5 3H25.5V9H22.5V3ZM9 25.5H3V22.5H9V25.5ZM25.5 45H22.5V39H25.5V45ZM34.5 25.5H23.25L12.8906 11.7188L15.2812 9.89062L24.75 22.5H34.5V25.5ZM45 25.5H39V22.5H45V25.5Z" fill="currentColor"/></svg>