<svg preserveAspectRatio="none" viewBox="0 0 52 40" fill="none" xmlns="http://www.w3.org/2000/svg"><path d="M50.375 0.75H1.625C1.15104 0.75 0.761719 0.902344 0.457031 1.20703C0.152344 1.51172 0 1.90104 0 2.375V38.125C0 38.599 0.152344 38.9883 0.457031 39.293C0.761719 39.5977 1.15104 39.75 1.625 39.75H50.375C50.849 39.75 51.2383 39.5977 51.543 39.293C51.8477 38.9883 52 38.599 52 38.125V2.375C52 1.90104 51.8477 1.51172 51.543 1.20703C51.2383 0.902344 50.849 0.75 50.375 0.75ZM35.75 30C35.75 30.474 35.5977 30.8633 35.293 31.168C34.9883 31.4727 34.599 31.625 34.125 31.625H8.125C7.65104 31.625 7.26172 31.4727 6.95703 31.168C6.65234 30.8633 6.5 30.474 6.5 30V10.5C6.5 10.026 6.65234 9.63672 6.95703 9.33203C7.26172 9.02734 7.65104 8.875 8.125 8.875H34.125C34.599 8.875 34.9883 9.02734 35.293 9.33203C35.5977 9.63672 35.75 10.026 35.75 10.5V30ZM43.875 31.625H40.625C40.151 31.625 39.7617 31.4727 39.457 31.168C39.1523 30.8633 39 30.474 39 30C39 29.526 39.1523 29.1367 39.457 28.832C39.7617 28.5273 40.151 28.375 40.625 28.375H43.875C44.349 28.375 44.7383 28.5273 45.043 28.832C45.3477 29.1367 45.5 29.526 45.5 30C45.5 30.474 45.3477 30.8633 45.043 31.168C44.7383 31.4727 44.349 31.625 43.875 31.625ZM42.25 25.125C41.3698 25.125 40.6081 24.8034 39.9648 24.1602C39.3216 23.5169 39 22.7552 39 21.875C39 20.9948 39.3216 20.2331 39.9648 19.5898C40.6081 18.9466 41.3698 18.625 42.25 18.625C43.1302 18.625 43.8919 18.9466 44.5352 19.5898C45.1784 20.2331 45.5 20.9948 45.5 21.875C45.5 22.7552 45.1784 23.5169 44.5352 24.1602C43.8919 24.8034 43.1302 25.125 42.25 25.125ZM42.25 15.375C41.3698 15.375 40.6081 15.0534 39.9648 14.4102C39.3216 13.7669 39 13.0052 39 12.125C39 11.2448 39.3216 10.4831 39.9648 9.83984C40.6081 9.19661 41.3698 8.875 42.25 8.875C43.1302 8.875 43.8919 9.19661 44.5352 9.83984C45.1784 10.4831 45.5 11.2448 45.5 12.125C45.5 13.0052 45.1784 13.7669 44.5352 14.4102C43.8919 15.0534 43.1302 15.375 42.25 15.375Z" fill="currentColor"/></svg>