<svg preserveAspectRatio="none" viewBox="0 0 50 50" fill="currentColor" xmlns="http://www.w3.org/2000/svg"><path d="M28.0977 43.6328L32.3125 47.8477C32.4818 48.0169 32.651 48.1354 32.8203 48.2031C32.9896 48.2708 33.1927 48.3047 33.4297 48.3047C33.599 48.3047 33.7513 48.3047 33.8867 48.3047C34.056 48.3047 34.1745 48.2539 34.2422 48.1523C34.987 47.7461 35.681 47.306 36.3242 46.832C36.9674 46.3242 37.526 45.7995 38 45.2578C39.0833 44.1406 40.0143 42.9557 40.793 41.7031C41.5716 40.4167 42.181 39.0794 42.6211 37.6914C43.0612 36.2695 43.349 34.8307 43.4844 33.375C43.6198 31.9193 43.5859 30.4635 43.3828 29.0078C42.1641 30.7682 40.8776 32.3932 39.5234 33.8828C38.2031 35.3724 36.8659 36.7266 35.5117 37.9453C34.1914 39.1641 32.888 40.2474 31.6016 41.1953C30.349 42.1094 29.181 42.9219 28.0977 43.6328ZM6.61719 22.1523C7.32812 21.069 8.14062 19.901 9.05469 18.6484C10.0026 17.362 11.069 16.0417 12.2539 14.6875C13.4727 13.3333 14.8099 11.9792 16.2656 10.625C17.7552 9.27083 19.3633 7.96745 21.0898 6.71484C19.6341 6.51172 18.1784 6.47786 16.7227 6.61328C15.3008 6.7487 13.8958 7.05339 12.5078 7.52734C11.1536 7.96745 9.83333 8.57682 8.54688 9.35547C7.29427 10.1341 6.10938 11.0482 4.99219 12.0977C4.45052 12.6732 3.92578 13.2826 3.41797 13.9258C2.94401 14.569 2.50391 15.263 2.09766 16.0078C1.92839 16.3125 1.86068 16.651 1.89453 17.0234C1.92839 17.3958 2.09766 17.7005 2.40234 17.9375L6.61719 22.1523ZM2.25 49.625C2.25 49.625 2.40234 49.625 2.70703 49.625C3.01172 49.625 3.40104 49.625 3.875 49.625C5.56771 49.625 7.00651 49.4727 8.19141 49.168C9.41016 48.8633 10.3073 48.4232 10.8828 47.8477C12 46.6966 12.5586 45.2917 12.5586 43.6328C12.5586 41.9401 12 40.5182 10.8828 39.3672C9.73177 38.25 8.3099 37.6914 6.61719 37.6914C4.95833 37.6914 3.55339 38.25 2.40234 39.3672C1.35286 40.4505 0.794271 41.974 0.726562 43.9375C0.658854 45.901 0.625 47.2552 0.625 48C0.692708 48.4062 0.878906 48.7617 1.18359 49.0664C1.48828 49.3711 1.84375 49.5573 2.25 49.625ZM31.3477 4.63281C26.8451 6.5625 23.0026 8.94922 19.8203 11.793C16.638 14.6367 14.0312 17.3789 12 20.0195C10.0026 22.6263 8.52995 24.8776 7.58203 26.7734C6.66797 28.6354 6.19401 29.5833 6.16016 29.6172C6.05859 29.9557 6.02474 30.2773 6.05859 30.582C6.09245 30.8867 6.22786 31.1745 6.46484 31.4453L18.8047 43.7852C18.974 43.9544 19.1432 44.0729 19.3125 44.1406C19.5156 44.2083 19.7357 44.2422 19.9727 44.2422C20.0404 44.2422 20.1419 44.2422 20.2773 44.2422C20.4128 44.2422 20.5312 44.1914 20.6328 44.0898C20.6667 44.056 21.6146 43.582 23.4766 42.668C25.3385 41.7201 27.5729 40.2474 30.1797 38.25C32.7865 36.2188 35.4948 33.612 38.3047 30.4297C41.1484 27.2474 43.5352 23.4049 45.4648 18.9023L31.3477 4.63281ZM32.0078 26.7227C31.4323 27.2982 30.7721 27.7383 30.0273 28.043C29.3164 28.3477 28.5547 28.5 27.7422 28.5C26.9297 28.5 26.168 28.3477 25.457 28.043C24.7461 27.7383 24.1029 27.2982 23.5273 26.7227C22.4102 25.5716 21.8516 24.1667 21.8516 22.5078C21.8516 20.8151 22.4102 19.3932 23.5273 18.2422C24.6784 17.125 26.0833 16.5664 27.7422 16.5664C29.4349 16.5664 30.8568 17.125 32.0078 18.2422C33.125 19.4609 33.6836 20.8997 33.6836 22.5586C33.6836 24.1836 33.125 25.5716 32.0078 26.7227ZM46.7852 15.5C47.4284 13.5365 47.9701 11.4883 48.4102 9.35547C48.8503 7.22266 49.1211 4.9375 49.2227 2.5C49.2227 2.26302 49.1719 2.02604 49.0703 1.78906C49.0026 1.55208 48.8841 1.34896 48.7148 1.17969C48.6471 1.11198 48.4948 1.04427 48.2578 0.976562C48.0547 0.908854 47.8346 0.875 47.5977 0.875C45.1602 1.04427 42.8581 1.33203 40.6914 1.73828C38.5586 2.14453 36.5273 2.66927 34.5977 3.3125L46.7852 15.5Z" fill="currentColor"/></svg>