<svg preserveAspectRatio="none" viewBox="0 0 52 46" fill="currentColor" xmlns="http://www.w3.org/2000/svg"><path d="M50.375 0.5H1.625C1.1849 0.5 0.795573 0.669271 0.457031 1.00781C0.152344 1.3125 0 1.6849 0 2.125V11.875H52V2.125C52 1.6849 51.8307 1.3125 51.4922 1.00781C51.1875 0.669271 50.8151 0.5 50.375 0.5ZM1.625 46H14.625V15.125H0V44.375C0 44.8151 0.152344 45.2044 0.457031 45.543C0.795573 45.8477 1.1849 46 1.625 46ZM17.875 46H50.375C50.8151 46 51.1875 45.8477 51.4922 45.543C51.8307 45.2044 52 44.8151 52 44.375V15.125H17.875V46Z" fill="currentColor"/></svg>