<svg preserveAspectRatio="none" viewBox="0 0 52 48" fill="none" xmlns="http://www.w3.org/2000/svg"><path d="M26 0.875C22.3438 0.875 18.9245 1.41667 15.7422 2.5C12.5938 3.58333 9.85156 5.08984 7.51562 7.01953C5.17969 8.91536 3.33464 11.1497 1.98047 13.7227C0.660156 16.2956 0 19.0547 0 22C0 24.9792 0.677083 27.7721 2.03125 30.3789C3.41927 32.9857 5.28125 35.2708 7.61719 37.2344C9.98698 39.1979 12.7461 40.7552 15.8945 41.9062C19.043 43.0234 22.4115 43.582 26 43.582C27.1172 43.582 28.2344 43.5143 29.3516 43.3789C30.4688 43.2435 31.5859 43.0573 32.7031 42.8203L44.8906 47.8984C44.9922 47.9323 45.0938 47.9661 45.1953 48C45.2969 48 45.3984 48 45.5 48C45.6693 48 45.8385 47.9831 46.0078 47.9492C46.1771 47.8815 46.3294 47.7969 46.4648 47.6953C46.668 47.526 46.8372 47.3229 46.9727 47.0859C47.1081 46.8151 47.1589 46.5443 47.125 46.2734L46.3125 35.457C48.1406 33.5273 49.5456 31.4115 50.5273 29.1094C51.5091 26.8073 52 24.4375 52 22C52 19.0547 51.3229 16.2956 49.9688 13.7227C48.6484 11.1497 46.8203 8.91536 44.4844 7.01953C42.1484 5.08984 39.3893 3.58333 36.207 2.5C33.0586 1.41667 29.6562 0.875 26 0.875ZM29.25 28.5H13V25.25H29.25V28.5ZM39 18.75H13V15.5H39V18.75Z" fill="currentColor"/></svg>