<svg preserveAspectRatio="none" viewBox="0 0 52 52" fill="none" xmlns="http://www.w3.org/2000/svg"><path d="M48.4453 22.1523C48.0391 22.0846 47.6497 22.1693 47.2773 22.4062C46.9388 22.6094 46.7188 22.9141 46.6172 23.3203C45.974 22.1354 45.1784 21.069 44.2305 20.1211C43.3164 19.1393 42.2839 18.3099 41.1328 17.6328C39.9818 16.9557 38.7461 16.431 37.4258 16.0586C36.1055 15.6862 34.7344 15.5 33.3125 15.5H21.2773C19.8216 13.2995 18.1966 11.8945 16.4023 11.2852C14.6081 10.6419 13.1523 10.3203 12.0352 10.3203C11.2227 10.3203 10.5794 10.3711 10.1055 10.4727C9.63151 10.5742 9.34375 10.625 9.24219 10.625C9.10677 10.6927 8.9375 10.8112 8.73438 10.9805C8.53125 11.1159 8.37891 11.2682 8.27734 11.4375C8.20964 11.6745 8.17578 11.9115 8.17578 12.1484C8.17578 12.3854 8.20964 12.5885 8.27734 12.7578L10.4102 19.0547C9.42839 19.8672 8.5651 20.7982 7.82031 21.8477C7.10938 22.8633 6.5 23.9466 5.99219 25.0977H1.625C1.15104 25.0977 0.761719 25.25 0.457031 25.5547C0.152344 25.8255 0 26.2148 0 26.7227V38.0977C0 38.5716 0.152344 38.9609 0.457031 39.2656C0.761719 39.5703 1.15104 39.7227 1.625 39.7227H7.82031C8.46354 40.7044 9.24219 41.6016 10.1562 42.4141C11.0703 43.1927 12.0182 43.8698 13 44.4453V49.625C13 50.099 13.1523 50.4883 13.457 50.793C13.7617 51.0977 14.151 51.25 14.625 51.25H22.75C23.224 51.25 23.6133 51.0977 23.918 50.793C24.2227 50.4883 24.375 50.099 24.375 49.625V46.375H29.25V49.625C29.25 50.099 29.4023 50.4883 29.707 50.793C30.0117 51.0977 30.401 51.25 30.875 51.25H39C39.474 51.25 39.8633 51.0977 40.168 50.793C40.4727 50.4883 40.625 50.099 40.625 49.625V44.5977C42.8932 43.3789 44.7214 41.7031 46.1094 39.5703C47.5312 37.4036 48.3607 35.0677 48.5977 32.5625C49.6471 32.0885 50.4766 31.3776 51.0859 30.4297C51.6953 29.4818 52 28.3477 52 27.0273C52 25.4023 51.5599 24.2174 50.6797 23.4727C49.8333 22.694 49.0885 22.2539 48.4453 22.1523ZM15.4375 30.125C14.7943 30.125 14.2188 29.888 13.7109 29.4141C13.237 28.9062 13 28.3307 13 27.6875C13 27.0443 13.237 26.4857 13.7109 26.0117C14.2188 25.5039 14.7943 25.25 15.4375 25.25C16.0807 25.25 16.6393 25.5039 17.1133 26.0117C17.6211 26.4857 17.875 27.0443 17.875 27.6875C17.875 28.3307 17.6211 28.9062 17.1133 29.4141C16.6393 29.888 16.0807 30.125 15.4375 30.125ZM34.125 23.625H24.375C23.901 23.625 23.5117 23.4727 23.207 23.168C22.9023 22.8633 22.75 22.474 22.75 22C22.75 21.526 22.9023 21.1367 23.207 20.832C23.5117 20.5273 23.901 20.375 24.375 20.375H34.125C34.599 20.375 34.9883 20.5273 35.293 20.832C35.5977 21.1367 35.75 21.526 35.75 22C35.75 22.474 35.5977 22.8633 35.293 23.168C34.9883 23.4727 34.599 23.625 34.125 23.625ZM48.5977 28.3477C48.4961 27.7721 48.3776 27.2305 48.2422 26.7227C48.1068 26.2148 47.9544 25.724 47.7852 25.25C47.7852 25.25 47.8021 25.25 47.8359 25.25C47.9036 25.25 47.9375 25.25 47.9375 25.25C47.9375 25.25 48.0898 25.3516 48.3945 25.5547C48.7331 25.724 48.9023 26.2148 48.9023 27.0273C48.8346 27.2643 48.7669 27.5013 48.6992 27.7383C48.6315 27.9753 48.5977 28.1784 48.5977 28.3477ZM35.75 7.375C35.75 5.58073 35.1068 4.05729 33.8203 2.80469C32.5677 1.51823 31.0443 0.875 29.25 0.875C27.4557 0.875 25.9154 1.51823 24.6289 2.80469C23.3763 4.05729 22.75 5.58073 22.75 7.375C22.75 9.16927 23.3763 10.7096 24.6289 11.9961C25.9154 13.2487 27.4557 13.875 29.25 13.875C31.0443 13.875 32.5677 13.2487 33.8203 11.9961C35.1068 10.7096 35.75 9.16927 35.75 7.375Z" fill="currentColor"/></svg>