<svg preserveAspectRatio="none" viewBox="0 0 51 52" fill="currentColor" xmlns="http://www.w3.org/2000/svg"><path d="M21.125 51.25C24.0365 51.25 26.7786 50.6914 29.3516 49.5742C31.9245 48.4909 34.1589 47.0013 36.0547 45.1055C37.9844 43.1758 39.4909 40.9245 40.5742 38.3516C41.6914 35.7786 42.25 33.0365 42.25 30.125C42.25 28.0938 41.9792 26.1471 41.4375 24.2852C40.8958 22.4232 40.1341 20.6797 39.1523 19.0547L33.1602 25.0977C33.4648 25.9102 33.7018 26.7396 33.8711 27.5859C34.0404 28.3984 34.125 29.2448 34.125 30.125C34.125 31.9193 33.7865 33.612 33.1094 35.2031C32.4323 36.7604 31.5013 38.1315 30.3164 39.3164C29.1315 40.5013 27.7435 41.4323 26.1523 42.1094C24.5951 42.7865 22.9193 43.125 21.125 43.125C19.3307 43.125 17.638 42.7865 16.0469 42.1094C14.4896 41.4323 13.1185 40.5013 11.9336 39.3164C10.7487 38.1315 9.81771 36.7604 9.14062 35.2031C8.46354 33.612 8.125 31.9193 8.125 30.125C8.125 28.3307 8.46354 26.6549 9.14062 25.0977C9.81771 23.5065 10.7487 22.1185 11.9336 20.9336C13.1185 19.7487 14.4896 18.8177 16.0469 18.1406C17.638 17.4635 19.3307 17.125 21.125 17.125C22.0052 17.125 22.8854 17.2096 23.7656 17.3789C24.6458 17.5482 25.4414 17.7852 26.1523 18.0898L32.1953 12.0977C30.5703 11.1159 28.8268 10.3542 26.9648 9.8125C25.1029 9.27083 23.1562 9 21.125 9C18.2135 9 15.4714 9.55859 12.8984 10.6758C10.3255 11.7591 8.07422 13.2656 6.14453 15.1953C4.2487 17.0911 2.74219 19.3255 1.625 21.8984C0.541667 24.4714 0 27.2135 0 30.125C0 33.0365 0.541667 35.7786 1.625 38.3516C2.74219 40.9245 4.2487 43.1758 6.14453 45.1055C8.07422 47.0013 10.3255 48.4909 12.8984 49.5742C15.4714 50.6914 18.2135 51.25 21.125 51.25ZM23.5625 20.6797C23.1562 20.612 22.75 20.5443 22.3438 20.4766C21.9375 20.4089 21.5312 20.375 21.125 20.375C18.4505 20.375 16.1484 21.3398 14.2188 23.2695C12.3229 25.1654 11.375 27.4505 11.375 30.125C11.375 32.7995 12.3229 35.1016 14.2188 37.0312C16.1484 38.9271 18.4505 39.875 21.125 39.875C23.7995 39.875 26.0846 38.9271 27.9805 37.0312C29.9102 35.1016 30.875 32.7995 30.875 30.125C30.875 29.7188 30.8411 29.2956 30.7734 28.8555C30.7057 28.4154 30.638 28.026 30.5703 27.6875L25.6953 32.5625C25.1875 33.0365 24.6458 33.4089 24.0703 33.6797C23.5286 33.9167 22.9193 34.0352 22.2422 34.0352C21.7005 34.0352 21.1758 33.9505 20.668 33.7812C20.194 33.612 19.7539 33.375 19.3477 33.0703C19.1784 32.9688 19.0091 32.8503 18.8398 32.7148C18.7044 32.5456 18.6029 32.3932 18.5352 32.2578C18.1966 31.8516 17.9427 31.3776 17.7734 30.8359C17.638 30.2943 17.5703 29.7865 17.5703 29.3125C17.5703 28.6693 17.6888 28.043 17.9258 27.4336C18.1628 26.8242 18.5182 26.3164 18.9922 25.9102L23.5625 20.6797ZM43.3672 15.3477C43.4688 15.3477 43.5534 15.3815 43.6211 15.4492C43.7227 15.4831 43.8073 15.5 43.875 15.5C44.112 15.5 44.3151 15.4661 44.4844 15.3984C44.6875 15.2969 44.8568 15.1615 44.9922 14.9922L49.8672 10.1172C50.138 9.98177 50.3073 9.77865 50.375 9.50781C50.4427 9.20312 50.4427 8.93229 50.375 8.69531C50.3073 8.42448 50.1719 8.1875 49.9688 7.98438C49.7995 7.78125 49.5625 7.62891 49.2578 7.52734L46.8203 6.71484L48.2422 5.24219C48.5807 4.9375 48.75 4.5651 48.75 4.125C48.75 3.6849 48.5807 3.3125 48.2422 3.00781C47.9375 2.66927 47.5651 2.5 47.125 2.5C46.6849 2.5 46.3125 2.66927 46.0078 3.00781L44.5352 4.42969L43.7227 1.99219C43.6211 1.75521 43.4688 1.53516 43.2656 1.33203C43.0625 1.09505 42.8255 0.942708 42.5547 0.875C42.3177 0.807292 42.0469 0.807292 41.7422 0.875C41.4714 0.942708 41.2682 1.11198 41.1328 1.38281L36.2578 6.25781C35.987 6.49479 35.8177 6.76562 35.75 7.07031C35.6823 7.34115 35.7331 7.61198 35.9023 7.88281L37.2227 11.7422L21.125 27.8398C20.7865 28.1784 20.6172 28.5677 20.6172 29.0078C20.6172 29.4141 20.7865 29.7865 21.125 30.125C21.2943 30.2943 21.4805 30.4297 21.6836 30.5312C21.9206 30.599 22.1068 30.6328 22.2422 30.6328C22.4115 30.6328 22.5977 30.599 22.8008 30.5312C23.0378 30.4297 23.2409 30.2943 23.4102 30.125L39.5078 14.0273L43.3672 15.3477Z" fill="currentColor"/></svg>