<svg preserveAspectRatio="none" viewBox="0 0 44 53" fill="none" xmlns="http://www.w3.org/2000/svg"><path d="M13.875 21.375H30.125C30.599 21.375 30.9883 21.2227 31.293 20.918C31.5977 20.6133 31.75 20.224 31.75 19.75C31.75 19.276 31.5977 18.8867 31.293 18.582C30.9883 18.2773 30.599 18.125 30.125 18.125H13.875C13.401 18.125 13.0117 18.2773 12.707 18.582C12.4023 18.8867 12.25 19.276 12.25 19.75C12.25 20.224 12.4023 20.6133 12.707 20.918C13.0117 21.2227 13.401 21.375 13.875 21.375ZM13.875 27.875H30.125C30.599 27.875 30.9883 27.7227 31.293 27.418C31.5977 27.1133 31.75 26.724 31.75 26.25C31.75 25.776 31.5977 25.3867 31.293 25.082C30.9883 24.7773 30.599 24.625 30.125 24.625H13.875C13.401 24.625 13.0117 24.7773 12.707 25.082C12.4023 25.3867 12.25 25.776 12.25 26.25C12.25 26.724 12.4023 27.1133 12.707 27.418C13.0117 27.7227 13.401 27.875 13.875 27.875ZM13.875 34.375H20.375C20.849 34.375 21.2383 34.2227 21.543 33.918C21.8477 33.6133 22 33.224 22 32.75C22 32.276 21.8477 31.8867 21.543 31.582C21.2383 31.2773 20.849 31.125 20.375 31.125H13.875C13.401 31.125 13.0117 31.2773 12.707 31.582C12.4023 31.8867 12.25 32.276 12.25 32.75C12.25 33.224 12.4023 33.6133 12.707 33.918C13.0117 34.2227 13.401 34.375 13.875 34.375ZM7.375 10H9V5.125H2.5C2.02604 5.125 1.63672 5.27734 1.33203 5.58203C1.02734 5.88672 0.875 6.27604 0.875 6.75V50.625C0.875 51.099 1.02734 51.4883 1.33203 51.793C1.63672 52.0977 2.02604 52.25 2.5 52.25H41.5C41.974 52.25 42.3633 52.0977 42.668 51.793C42.9727 51.4883 43.125 51.099 43.125 50.625V6.75C43.125 6.27604 42.9727 5.88672 42.668 5.58203C42.3633 5.27734 41.974 5.125 41.5 5.125H35V10H36.625C37.099 10 37.4883 10.1523 37.793 10.457C38.0977 10.7617 38.25 11.151 38.25 11.625V34.375H28.5C28.026 34.375 27.6367 34.5273 27.332 34.832C27.0273 35.1367 26.875 35.526 26.875 36V45.75H7.375C6.90104 45.75 6.51172 45.5977 6.20703 45.293C5.90234 44.9883 5.75 44.599 5.75 44.125V11.625C5.75 11.151 5.90234 10.7617 6.20703 10.457C6.51172 10.1523 6.90104 10 7.375 10ZM30.125 37.625H37.2852L30.125 44.7852V37.625ZM13.875 13.25H30.125C30.599 13.25 30.9883 13.0977 31.293 12.793C31.5977 12.4883 31.75 12.099 31.75 11.625V5.125C31.75 4.65104 31.5977 4.26172 31.293 3.95703C30.9883 3.65234 30.599 3.5 30.125 3.5H26.5703C26.2318 2.51823 25.6393 1.73958 24.793 1.16406C23.9805 0.554688 23.0495 0.25 22 0.25C20.9505 0.25 20.0026 0.554688 19.1562 1.16406C18.3438 1.73958 17.7682 2.51823 17.4297 3.5H13.875C13.401 3.5 13.0117 3.65234 12.707 3.95703C12.4023 4.26172 12.25 4.65104 12.25 5.125V11.625C12.25 12.099 12.4023 12.4883 12.707 12.793C13.0117 13.0977 13.401 13.25 13.875 13.25Z" fill="currentColor"/></svg>