<svg preserveAspectRatio="none" viewBox="0 0 52 51" fill="none" xmlns="http://www.w3.org/2000/svg"><path d="M23.5625 41.5C22.8177 41.5 22.056 41.4661 21.2773 41.3984C20.5326 41.3307 19.7878 41.2461 19.043 41.1445C20.7695 42.7695 22.8685 44.056 25.3398 45.0039C27.8451 45.918 30.5026 46.375 33.3125 46.375C34.1927 46.375 35.0729 46.3242 35.9531 46.2227C36.8672 46.1211 37.7643 45.9688 38.6445 45.7656L47.125 50.8945V41.6016C48.7161 40.2474 49.918 38.7409 50.7305 37.082C51.5768 35.3893 52 33.612 52 31.75C52 30.4635 51.7969 29.2279 51.3906 28.043C50.9844 26.8242 50.3919 25.6732 49.6133 24.5898C48.9362 27.0273 47.7852 29.2786 46.1602 31.3438C44.5352 33.4089 42.5716 35.2031 40.2695 36.7266C38.0013 38.2161 35.4453 39.3841 32.6016 40.2305C29.7578 41.0768 26.7448 41.5 23.5625 41.5ZM17.7734 37.6914C18.7552 37.8607 19.7201 37.9961 20.668 38.0977C21.6497 38.1992 22.6146 38.25 23.5625 38.25C26.8125 38.25 29.8594 37.7591 32.7031 36.7773C35.5807 35.7956 38.0859 34.4583 40.2188 32.7656C42.3516 31.0729 44.0273 29.0924 45.2461 26.8242C46.4987 24.556 47.125 22.1354 47.125 19.5625C47.125 16.9896 46.4987 14.569 45.2461 12.3008C44.0273 10.0326 42.3516 8.05208 40.2188 6.35938C38.0859 4.66667 35.5807 3.32943 32.7031 2.34766C29.8594 1.36589 26.8125 0.875 23.5625 0.875C20.3125 0.875 17.2487 1.36589 14.3711 2.34766C11.5273 3.32943 9.03906 4.66667 6.90625 6.35938C4.77344 8.05208 3.08073 10.0326 1.82812 12.3008C0.609375 14.569 0 16.9896 0 19.5625C0 21.6276 0.40625 23.6419 1.21875 25.6055C2.0651 27.5352 3.28385 29.3125 4.875 30.9375V44.1406L17.7734 37.6914Z" fill="currentColor"/></svg>